<?xml version="1.0" encoding="UTF-8"?>
<svg id="Layer_2" data-name="Layer 2" xmlns="http://www.w3.org/2000/svg" viewBox="0 0 557.84 430.84">
  <defs>
    <style>
      .cls-1 {
        fill: #1a4120;
        fill-rule: evenodd;
        stroke: #000;
        stroke-linejoin: round;
        stroke-width: 3px;
      }

      .cls-2 {
        fill: #fff;
      }
    </style>
  </defs>
  <g id="svg">
    <path id="GA" class="cls-1" d="M543.73,343.71l-.32-9.69-2.26,8.4,2.59,1.29h0ZM547.29,328.84l-1.29-7.43-.97,4.52,2.26,2.91ZM396.06,125.26l-4.2.97-12.28,2.59-45.24,9.37-4.2.97-4.52.65-25.21,4.85-6.79,1.29-27.47,5.17-5.82.65.32.65,43.3,131.84,23.91,42.65-5.82,6.46-3.55,25.21,7.11,12.93.65,23.59,8.72,16.48v.32l-.32.32,10.99,17.13,152.52-19.07,4.52,11.63,4.85-24.88,8.72-6.79,22.3,1.29h0l-1.94-34.9,4.2-7.43-2.26-13.9,4.52-13.25,6.79-7.43-4.85-4.52,11.31-13.9h-.32l-19.39-18.1-26.5-37.81-14.54-6.79-62.37-52.35-15.19-19.39-29.41-12.28-1.62-6.46,9.05-17.77h0Z"/>
    <path id="TN" class="cls-1" d="M345.32,25.41l-92.42,15.51-131.52,17.45-10.99.32,3.23,12.93-65.27,8.72-9.37,1.29v.32l-2.59,3.23-1.29-.32v-2.91l-3.55.32.32.32,1.94,9.05-6.46,8.08-.65,14.86v2.91l-9.69,18.74,1.94,13.25-9.05,14.22,3.23,12.93-11.63,10.66.65.65,7.11-.65,64.63-8.08,28.44-3.88,16.16-2.26h.65l-.32-.65,54.29-7.43,25.85-3.23,51.7-8.4,9.69-1.62,5.82-.65,27.47-5.17,6.79-1.29,25.21-4.85,4.52-.65v-3.23l-.32-14.22,11.96-6.46.65-8.4,13.57-12.6,12.93-3.23,26.5-23.91,10.02-14.86,7.76,2.91,17.45-17.13,9.37-.97,8.4-17.13,3.55.32-.32-13.9,1.62-4.85-5.17.97-18.42,5.17-21.97,4.52-55.26,11.31-5.82.97-1.29.97h0Z"/>
    <g>
      <path class="cls-2" d="M143.56,103.09h-4.98v14.91h-2.89v-14.91h-4.96v-2.45h12.83v2.45Z"/>
      <path class="cls-2" d="M155.87,118h-9.74v-17.36h9.36v2.45h-6.48v4.91h6v2.43h-6v5.12h6.86v2.45Z"/>
      <path class="cls-2" d="M173.69,118h-3.16l-8.12-12.52c-.16-.24-.3-.47-.41-.67-.11-.21-.21-.4-.29-.58h-.06c.03.24.06.58.07,1,.02.43.02.95.02,1.57v11.19h-2.78v-17.36h3.35l7.88,12.24c.17.26.32.49.45.71.13.21.24.41.33.57h.05c-.04-.23-.07-.56-.08-.97s-.02-.92-.02-1.51v-11.04h2.78v17.36Z"/>
      <path class="cls-2" d="M192.71,118h-3.16l-8.12-12.52c-.16-.24-.3-.47-.41-.67-.11-.21-.21-.4-.29-.58h-.06c.03.24.06.58.07,1,.02.43.02.95.02,1.57v11.19h-2.78v-17.36h3.35l7.88,12.24c.17.26.32.49.45.71.13.21.24.41.33.57h.05c-.04-.23-.07-.56-.08-.97s-.02-.92-.02-1.51v-11.04h2.78v17.36Z"/>
      <path class="cls-2" d="M206.73,118h-9.74v-17.36h9.36v2.45h-6.48v4.91h6v2.43h-6v5.12h6.86v2.45Z"/>
      <path class="cls-2" d="M208.36,116.75l1.28-2.21c.78.48,1.51.83,2.19,1.02.68.2,1.44.3,2.28.3,1,0,1.79-.22,2.37-.65.58-.43.87-1.05.87-1.86,0-.73-.24-1.31-.72-1.74-.48-.42-1.29-.81-2.44-1.17-1.77-.52-3.07-1.17-3.9-1.95-.83-.77-1.25-1.82-1.25-3.15,0-1.44.54-2.63,1.61-3.58s2.53-1.42,4.37-1.42c.81,0,1.6.09,2.38.27.78.18,1.56.45,2.32.82l-1.08,2.3c-.67-.35-1.31-.59-1.92-.74-.61-.15-1.23-.22-1.86-.22-.92,0-1.64.2-2.17.61-.53.4-.79.97-.79,1.71,0,.65.24,1.17.73,1.54.48.38,1.31.74,2.49,1.11,1.81.54,3.11,1.21,3.9,2.02s1.19,1.92,1.19,3.33c0,1.52-.54,2.76-1.62,3.73-1.08.97-2.62,1.46-4.62,1.46-1,0-1.98-.13-2.93-.38s-1.85-.64-2.69-1.16Z"/>
      <path class="cls-2" d="M221.85,116.75l1.28-2.21c.78.48,1.51.83,2.19,1.02.68.2,1.44.3,2.28.3,1,0,1.79-.22,2.37-.65.58-.43.87-1.05.87-1.86,0-.73-.24-1.31-.72-1.74-.48-.42-1.29-.81-2.44-1.17-1.77-.52-3.07-1.17-3.9-1.95-.83-.77-1.25-1.82-1.25-3.15,0-1.44.54-2.63,1.61-3.58s2.53-1.42,4.37-1.42c.81,0,1.6.09,2.38.27.78.18,1.56.45,2.32.82l-1.08,2.3c-.67-.35-1.31-.59-1.92-.74-.61-.15-1.23-.22-1.86-.22-.92,0-1.64.2-2.17.61-.53.4-.79.97-.79,1.71,0,.65.24,1.17.73,1.54.48.38,1.31.74,2.49,1.11,1.81.54,3.11,1.21,3.9,2.02s1.19,1.92,1.19,3.33c0,1.52-.54,2.76-1.62,3.73-1.08.97-2.62,1.46-4.62,1.46-1,0-1.98-.13-2.93-.38s-1.85-.64-2.69-1.16Z"/>
      <path class="cls-2" d="M246.56,118h-9.74v-17.36h9.36v2.45h-6.48v4.91h6v2.43h-6v5.12h6.86v2.45Z"/>
      <path class="cls-2" d="M259.39,118h-9.74v-17.36h9.36v2.45h-6.48v4.91h6v2.43h-6v5.12h6.86v2.45Z"/>
    </g>
    <g>
      <path class="cls-2" d="M376.41,282.83c-.85.5-1.78.88-2.78,1.14-1.01.26-2.09.39-3.26.39-2.64,0-4.74-.75-6.29-2.24-1.56-1.49-2.34-3.65-2.34-6.48s.83-4.97,2.5-6.67c1.67-1.7,3.88-2.55,6.65-2.55,1.02,0,1.96.09,2.83.28.87.19,1.77.5,2.7.93l-1,2.26c-.76-.35-1.5-.6-2.21-.76-.71-.16-1.49-.24-2.33-.24-1.82,0-3.29.57-4.42,1.7s-1.69,2.76-1.69,4.88.52,3.75,1.56,4.81c1.04,1.06,2.46,1.59,4.26,1.59.58,0,1.12-.05,1.61-.15.49-.1.94-.25,1.33-.45v-4.21h-3.66v-2.42h6.54v8.18Z"/>
      <path class="cls-2" d="M389.89,284.08h-9.75v-17.36h9.36v2.44h-6.48v4.92h6v2.43h-6v5.12h6.86v2.45Z"/>
      <path class="cls-2" d="M400.13,284.37c-2.48,0-4.47-.81-5.99-2.43s-2.28-3.73-2.28-6.33c0-2.77.77-4.99,2.32-6.67,1.55-1.68,3.62-2.52,6.23-2.52,2.44,0,4.4.81,5.9,2.43,1.49,1.62,2.24,3.74,2.24,6.37,0,2.78-.77,5-2.31,6.66-1.54,1.66-3.57,2.48-6.11,2.48ZM400.16,281.85c1.65,0,2.95-.56,3.91-1.68.96-1.12,1.44-2.69,1.44-4.7s-.47-3.67-1.4-4.81c-.93-1.14-2.21-1.71-3.83-1.71s-2.93.59-3.92,1.78-1.48,2.75-1.48,4.68.49,3.51,1.46,4.68,2.25,1.75,3.82,1.75Z"/>
      <path class="cls-2" d="M424.83,284.08h-3.32l-2.68-4.64c-.48-.81-.91-1.37-1.29-1.68-.39-.3-.84-.47-1.37-.49h-1.57v6.8h-2.88v-17.36h5.64c1.78,0,3.19.4,4.21,1.21,1.02.81,1.54,2.01,1.54,3.61,0,1.19-.33,2.21-.99,3.04-.66.83-1.56,1.44-2.69,1.83v.05c.43.19.82.47,1.17.84.35.38.69.83.99,1.35l3.23,5.44ZM414.61,269.06v5.87h2.28c.94,0,1.71-.29,2.31-.88.6-.59.9-1.34.9-2.24s-.27-1.54-.8-2.02c-.54-.48-1.32-.73-2.35-.73h-2.32Z"/>
      <path class="cls-2" d="M440.35,282.83c-.85.5-1.78.88-2.78,1.14-1.01.26-2.09.39-3.26.39-2.64,0-4.74-.75-6.29-2.24-1.56-1.49-2.34-3.65-2.34-6.48s.83-4.97,2.5-6.67c1.67-1.7,3.88-2.55,6.65-2.55,1.02,0,1.96.09,2.83.28.87.19,1.77.5,2.7.93l-1,2.26c-.76-.35-1.5-.6-2.21-.76-.71-.16-1.49-.24-2.33-.24-1.82,0-3.29.57-4.42,1.7s-1.69,2.76-1.69,4.88.52,3.75,1.56,4.81c1.04,1.06,2.46,1.59,4.26,1.59.58,0,1.12-.05,1.61-.15.49-.1.94-.25,1.33-.45v-4.21h-3.66v-2.42h6.54v8.18Z"/>
      <path class="cls-2" d="M447.01,284.08h-2.92v-17.36h2.92v17.36Z"/>
      <path class="cls-2" d="M449.37,284.08l6.5-17.36h3.24l6.45,17.36h-3.16l-1.49-4.19h-6.96l-1.44,4.19h-3.15ZM454.71,277.52h5.44l-2.41-6.9c-.06-.18-.1-.36-.15-.54-.04-.18-.08-.41-.12-.67h-.07c-.04.24-.08.46-.13.64-.04.19-.1.37-.16.54l-2.4,6.92Z"/>
    </g>
  </g>
</svg>