<?xml version="1.0" encoding="UTF-8"?>
<svg xmlns="http://www.w3.org/2000/svg" viewBox="0 0 540 540">
  <!-- C2H favicon: brand-green rounded square with the C2H lightning-bolt mark
       extracted from c2h-hero.svg. Bolt sits centered with ~57 of padding top/bottom. -->
  <rect width="540" height="540" rx="80" fill="#1A4120"/>
  <g transform="translate(0, 57)" fill="#fff">
    <path d="M467.28,168.91c-6.34-3.67-13.89-6.99-22.85-6.99-35.16,0-92.78,53.96-186.84,174.95-41.28,50.42-74.78,76.33-100.78,90.1h212.95l123.26-213.48-25.74-44.58Z"/>
    <path d="M232.4,316.76c70.22-90.33,118.55-141.92,156.65-167.17,20.11-13.33,38.19-19.8,55.29-19.8.12,0,.25.01.37.01l-15.48-26.81-.21-.13c-6.86-4.24-15.24-8.56-25.47-8.56-35.16,0-92.78,53.96-186.83,174.95-56.33,68.81-98.2,91.98-126.24,100.94l22.64,39.21c22.97-5.39,61.49-22.03,119.29-92.63Z"/>
    <path d="M177.87,201.09c-56.62,69.17-98.63,92.21-126.67,101.07l22.63,39.2c23.14-5.8,61.22-23.29,117.67-92.24,70.22-90.33,118.55-141.93,156.65-167.18,20.1-13.32,38.19-19.8,55.28-19.8.75,0,1.5.06,2.26.09l-16.09-27.87c-6.75-4.12-14.94-8.22-24.9-8.22-35.16,0-92.78,53.96-186.84,174.95Z"/>
    <path d="M152.67,180.99C222.89,90.65,271.22,39.06,309.32,13.81c9.07-6.01,17.7-10.55,26.04-13.81H123.26L0,213.48l34.55,59.85c23.1-5.69,61.3-22.95,118.12-92.35Z"/>
  </g>
</svg>
