<?xml version="1.0" encoding="UTF-8"?>
<svg id="Layer_2" data-name="Layer 2" xmlns="http://www.w3.org/2000/svg" viewBox="0 0 1622.83 426.97">
  <defs>
    <style>
      .cls-1 {
        fill: #fff;
      }
    </style>
  </defs>
  <g id="Layer_1-2" data-name="Layer 1">
    <g>
      <g>
        <path class="cls-1" d="M557.26,108.72c10.14-19.08,24.29-33.95,42.43-44.61,18.14-10.65,38.71-15.98,61.71-15.98,28.17,0,52.29,7.73,72.36,23.18,20.06,15.45,33.47,36.53,40.24,63.22h-63.57c-4.73-10.3-11.44-18.14-20.12-23.53-8.68-5.38-18.54-8.08-29.59-8.08-17.81,0-32.24,6.44-43.28,19.32-11.05,12.88-16.57,30.09-16.57,51.63s5.52,38.76,16.57,51.63c11.04,12.88,25.47,19.32,43.28,19.32,11.04,0,20.91-2.69,29.59-8.08,8.68-5.38,15.39-13.22,20.12-23.53h63.57c-6.76,26.69-20.18,47.71-40.24,63.05-20.07,15.34-44.18,23.01-72.36,23.01-22.99,0-43.56-5.32-61.71-15.98-18.15-10.65-32.29-25.46-42.43-44.43-10.14-18.97-15.22-40.62-15.22-64.98s5.07-46.07,15.22-65.15Z"/>
        <path class="cls-1" d="M814.23,240.6c22.09-18.97,39.5-34.53,52.24-46.71,12.73-12.17,23.5-24.94,32.29-38.28,8.79-13.35,13.19-26.34,13.19-38.99,0-9.6-2.14-17.09-6.42-22.48-4.29-5.38-10.71-8.08-19.27-8.08s-15.27,3.34-20.12,10.01c-4.85,6.67-7.27,16.1-7.27,28.27h-55.79c.45-19.9,4.57-36.53,12.34-49.88,7.78-13.35,18.03-23.18,30.77-29.5,12.73-6.32,26.88-9.48,42.43-9.48,26.82,0,47.05,7.14,60.69,21.42,13.64,14.29,20.46,32.9,20.46,55.85,0,25.06-8.23,48.29-24.68,69.72-16.46,21.42-37.42,42.32-62.89,62.69h91.29v48.82h-169.74v-44.61c7.66-6.32,11.16-9.25,10.48-8.78Z"/>
        <path class="cls-1" d="M1212.19,50.94v246.56h-57.82v-101.51h-89.94v101.51h-57.82V50.94h57.82v96.59h89.94V50.94h57.82Z"/>
      </g>
      <g>
        <path class="cls-1" d="M467.28,168.91c-6.34-3.67-13.89-6.99-22.85-6.99-35.16,0-92.78,53.96-186.84,174.95-41.28,50.42-74.78,76.33-100.78,90.1h212.95l123.26-213.48-25.74-44.58Z"/>
        <path class="cls-1" d="M232.4,316.76c70.22-90.33,118.55-141.92,156.65-167.17,20.11-13.33,38.19-19.8,55.29-19.8.12,0,.25.01.37.01l-15.48-26.81-.21-.13c-6.86-4.24-15.24-8.56-25.47-8.56-35.16,0-92.78,53.96-186.83,174.95-56.33,68.81-98.2,91.98-126.24,100.94l22.64,39.21c22.97-5.39,61.49-22.03,119.29-92.63Z"/>
        <path class="cls-1" d="M177.87,201.09c-56.62,69.17-98.63,92.21-126.67,101.07l22.63,39.2c23.14-5.8,61.22-23.29,117.67-92.24,70.22-90.33,118.55-141.93,156.65-167.18,20.1-13.32,38.19-19.8,55.28-19.8.75,0,1.5.06,2.26.09l-16.09-27.87c-6.75-4.12-14.94-8.22-24.9-8.22-35.16,0-92.78,53.96-186.84,174.95Z"/>
        <path class="cls-1" d="M152.67,180.99C222.89,90.65,271.22,39.06,309.32,13.81c9.07-6.01,17.7-10.55,26.04-13.81H123.26L0,213.48l34.55,59.85c23.1-5.69,61.3-22.95,118.12-92.35Z"/>
      </g>
      <g>
        <path class="cls-1" d="M656.14,356.82v14.57h32.46v16.65h-32.46v25.08h-21.64v-72.94h56.6v16.65h-34.96Z"/>
        <path class="cls-1" d="M694.47,413.11v-58.84h17.46v58.84h-17.46Z"/>
        <path class="cls-1" d="M746.85,397.25h-9.23v15.87h-17.46v-58.84h27.45c15.78,0,24.85,7.56,24.85,20.9,0,8.73-3.53,15.11-9.91,18.72l11.92,19.22h-19.81l-7.81-15.87ZM747.6,383.82c5.2,0,8.23-2.85,8.23-8.14s-3.02-7.97-8.23-7.97h-9.99v16.12h9.99Z"/>
        <path class="cls-1" d="M827.58,359.93l-6.46,13.43c-6.04-3.44-14.61-6.55-19.56-6.55-2.94,0-4.87,1.01-4.87,3.19,0,8.65,30.72,3.53,30.72,24.76,0,12.51-11.08,18.47-24.26,18.47-9.99,0-20.9-3.53-28.29-9.32l6.55-13.26c6.04,5.12,15.87,8.98,21.91,8.98,3.69,0,6.04-1.26,6.04-3.95,0-8.9-30.72-3.27-30.72-24.01,0-11.33,9.65-18.55,24.34-18.55,8.98,0,18.22,2.69,24.59,6.8Z"/>
        <path class="cls-1" d="M866.18,368.2v44.91h-17.54v-44.91h-17.04v-13.93h51.71v13.93h-17.12Z"/>
        <path class="cls-1" d="M956.07,352.9l-12.49,14.77c-4.58-5.83-11.34-9.68-17.38-9.68-9.88,0-17.38,8.01-17.38,18.73s7.49,18.83,17.38,18.83c5.62,0,12.38-3.33,17.38-8.43l12.49,13.32c-7.91,8.53-19.87,14.05-30.9,14.05-22.16,0-38.5-16.02-38.5-37.56s16.65-36.94,39.23-36.94c11.03,0,22.79,4.99,30.17,12.9Z"/>
        <path class="cls-1" d="M977.63,403.71l-3.53,9.4h-17.96l25.1-58.84h17.96l24.26,58.84h-18.63l-3.44-9.4h-23.76ZM989.72,371.73l-7.22,19.22h14.27l-7.05-19.22Z"/>
        <path class="cls-1" d="M1068.26,398.51v14.61h-42.14v-58.84h17.46v44.24h24.68Z"/>
        <path class="cls-1" d="M1116.43,398.51v14.61h-42.14v-58.84h17.46v44.24h24.68Z"/>
        <path class="cls-1" d="M588.18,399.37h-30.62l-5.64,16.22h-9.67l25.38-72.51h10.58l25.28,72.51h-9.67l-5.64-16.22ZM585.56,391.62l-12.69-36.83-12.69,36.83h25.38Z"/>
        <g>
          <path class="cls-1" d="M1134.19,359.36c3.09-5.68,7.31-10.13,12.64-13.34,5.34-3.21,11.27-4.81,17.78-4.81,7.65,0,14.34,1.92,20.04,5.75,5.71,3.84,9.87,9.28,12.49,16.32h-10.98c-1.95-4.39-4.75-7.78-8.41-10.15-3.66-2.37-8.04-3.56-13.15-3.56s-9.3,1.19-13.2,3.56c-3.9,2.37-6.95,5.74-9.17,10.1-2.22,4.36-3.33,9.47-3.33,15.33s1.11,10.87,3.33,15.22c2.22,4.36,5.27,7.73,9.17,10.1,3.89,2.37,8.29,3.56,13.2,3.56s9.48-1.17,13.15-3.51c3.66-2.34,6.46-5.7,8.41-10.1h10.98c-2.62,6.98-6.79,12.37-12.49,16.17-5.71,3.8-12.39,5.7-20.04,5.7-6.52,0-12.44-1.59-17.78-4.76-5.34-3.17-9.55-7.59-12.64-13.24-3.09-5.65-4.63-12.03-4.63-19.15s1.54-13.51,4.63-19.2Z"/>
          <path class="cls-1" d="M1224.74,411.05c-5.37-3.17-9.62-7.6-12.74-13.29-3.12-5.68-4.68-12.08-4.68-19.2s1.56-13.51,4.68-19.2c3.12-5.68,7.37-10.11,12.74-13.29,5.37-3.17,11.32-4.76,17.83-4.76s12.56,1.59,17.93,4.76c5.37,3.18,9.6,7.59,12.69,13.24,3.09,5.65,4.64,12.07,4.64,19.25s-1.55,13.6-4.64,19.25c-3.09,5.65-7.32,10.06-12.69,13.24-5.37,3.18-11.35,4.76-17.93,4.76s-12.46-1.59-17.83-4.76ZM1255.82,403.98c3.93-2.37,7.02-5.76,9.27-10.15,2.25-4.39,3.37-9.48,3.37-15.28s-1.13-10.97-3.37-15.33c-2.25-4.36-5.32-7.73-9.22-10.1-3.9-2.37-8.33-3.56-13.3-3.56s-9.4,1.19-13.29,3.56c-3.9,2.37-6.97,5.74-9.22,10.1-2.25,4.36-3.38,9.47-3.38,15.33s1.13,10.88,3.38,15.28c2.25,4.39,5.34,7.78,9.27,10.15,3.93,2.37,8.34,3.56,13.24,3.56s9.32-1.19,13.25-3.56Z"/>
          <path class="cls-1" d="M1361.13,342.67v72.41h-9.17v-53.99l-23.17,53.99h-6.45l-23.27-54.1v54.1h-9.17v-72.41h9.87l25.79,59.85,25.79-59.85h9.77Z"/>
          <path class="cls-1" d="M1417.59,378.61c-4,4.01-10.09,6.02-18.28,6.02h-13.5v30.45h-9.17v-72.93h22.66c7.92,0,13.95,1.99,18.08,5.96,4.13,3.98,6.2,9.1,6.2,15.38s-2,11.11-5.99,15.12ZM1410.59,373.32c2.42-2.3,3.62-5.58,3.62-9.84,0-9-4.97-13.5-14.91-13.5h-13.5v26.79h13.5c5.1,0,8.87-1.15,11.28-3.45Z"/>
          <path class="cls-1" d="M1476.47,398.85h-30.62l-5.64,16.22h-9.67l25.38-72.51h10.58l25.28,72.51h-9.67l-5.64-16.22ZM1473.85,391.11l-12.69-36.83-12.69,36.83h25.38Z"/>
          <path class="cls-1" d="M1558.06,415.07h-9.17l-36.86-58.07v58.07h-9.17v-73.04h9.17l36.86,57.97v-57.97h9.17v73.04Z"/>
          <path class="cls-1" d="M1622.83,342.14l-22.86,45.41v27.52h-9.17v-27.52l-22.96-45.41h10.17l17.32,36.94,17.33-36.94h10.17Z"/>
        </g>
      </g>
    </g>
  </g>
</svg>